# xmcd
#
# Track frame offsets: 
#        150
#        19079
#        40172
#        61725
#
# Disc length: 1100 seconds
#
# Revision: 0
# Processed by: cddbd v1.5.2PL0 Copyright (c) Steve Scherf et al.
# Submitted via: ExactAudioCopy v0.95b4
#
DISCID=27044a04
DTITLE=Serpent Cult - Trident Nor Fire
DYEAR=2007
DGENRE=Doom Metal
TTITLE0=The Harvest
TTITLE1=Red Dawn
TTITLE2=Screams From The Deep
TTITLE3=Rainbow Demon
EXTD=
EXTT0=
EXTT1=
EXTT2=
EXTT3=
PLAYORDER=
